<svg xmlns="http://www.w3.org/2000/svg" version="1.1" xmlns:xlink="http://www.w3.org/1999/xlink" xmlns:svgjs="http://svgjs.dev/svgjs" width="1000" height="1000" viewBox="0 0 1000 1000"><rect width="1000" height="1000" fill="#ffbe79"></rect><g transform="matrix(0.7,0,0,0.7,150,150)"><svg viewBox="0 0 280 280" data-background-color="#ffbe79" preserveAspectRatio="xMidYMid meet" height="1000" width="1000" xmlns="http://www.w3.org/2000/svg" xmlns:xlink="http://www.w3.org/1999/xlink"><g id="tight-bounds" transform="matrix(1,0,0,1,0,0)"><svg viewBox="0 0 280 280" height="280" width="280"><g><svg viewBox="0 0 280 280" height="280" width="280"><g><svg viewBox="0 0 280 280" height="280" width="280"><g id="textblocktransform"><svg viewBox="0 0 280 280" height="280" width="280" id="textblock"><g><svg viewBox="0 0 280 280" height="280" width="280"><g transform="matrix(1,0,0,1,90.50252531694167,90.50252531694167)"><svg viewBox="0 0 98.99494936611666 98.99494936611666" height="98.99494936611666" width="98.99494936611666"><g><circle r="49" cx="49.49747468305833" cy="49.49747468305833" fill="#374151" data-fill-palette-color="accent"></circle></g></svg></g><g><path d="M29.824 92.772l-1.582 4.903-23.245-7.502-1.38 4.279-3.617-1.167 4.322-13.392 3.616 1.167-1.359 4.211z" fill="#374151" data-fill-palette-color="primary"></path><path d="M142.572 14.573l-4.607 0.054-0.055-4.778 4.606-0.053z" fill="#374151" data-fill-palette-color="primary"></path><path d="M251.813 97.809l-1.617-4.891 23.189-7.668-1.411-4.268 3.608-1.193 4.418 13.36-3.608 1.193-1.389-4.201z" fill="#374151" data-fill-palette-color="primary"></path><path d="M10.656 178.051l-1.582-4.902 23.245-7.501-1.381-4.278 3.616-1.168 4.322 13.393-3.616 1.167-1.359-4.212z" fill="#374151" data-fill-palette-color="primary"></path><path d="M142.338 270.204l-4.607-0.053 0.056-4.778 4.606 0.054z" fill="#374151" data-fill-palette-color="primary"></path><path d="M270.935 173.153l-1.617 4.89-23.19-7.668-1.411 4.269-3.608-1.193 4.417-13.361 3.609 1.193-1.39 4.202z" fill="#374151" data-fill-palette-color="primary"></path><path d="M2.201 132.319c0-5.955 4.827-10.782 10.782-10.782 5.955 0 10.782 4.827 10.782 10.782 0 5.955-4.827 10.782-10.782 10.782-5.955 0-10.782-4.827-10.782-10.782z" fill="#374151" data-fill-palette-color="primary"></path><path d="M256.231 132.319c0-5.955 4.827-10.782 10.782-10.782 5.955 0 10.782 4.827 10.782 10.782 0 5.955-4.827 10.782-10.782 10.782-5.955 0-10.782-4.827-10.782-10.782z" fill="#374151" data-fill-palette-color="primary"></path></g></svg></g></svg></g></svg></g><g></g></svg></g><defs></defs></svg><rect width="280" height="280" fill="none" stroke="none" visibility="hidden"></rect></g></svg></g></svg>